<mxfile host="Electron" modified="2023-10-14T15:18:29.959Z" agent="Mozilla/5.0 (Windows NT 10.0; Win64; x64) AppleWebKit/537.36 (KHTML, like Gecko) draw.io/21.3.7 Chrome/112.0.5615.204 Electron/24.5.0 Safari/537.36" etag="yU1WrIEO92teXKYJ0VIs" version="21.3.7" type="device">
  <diagram name="PÃ¡gina-1" id="YPtc7yZXn8d5LxW-IVB2">
    <mxGraphModel dx="1050" dy="671" grid="1" gridSize="10" guides="1" tooltips="1" connect="1" arrows="1" fold="1" page="1" pageScale="1" pageWidth="827" pageHeight="1169" math="0" shadow="0">
      <root>
        <mxCell id="0" />
        <mxCell id="1" parent="0" />
        <mxCell id="sEt8218exzhVbjyMgW-c-1" value="" style="rounded=1;whiteSpace=wrap;html=1;fontSize=16;fillColor=#dedede;fontColor=#333333;strokeColor=none;gradientColor=none;strokeWidth=4;" vertex="1" parent="1">
          <mxGeometry x="40" y="40" width="390" height="240" as="geometry" />
        </mxCell>
        <mxCell id="sEt8218exzhVbjyMgW-c-24" style="edgeStyle=none;curved=1;rounded=0;orthogonalLoop=1;jettySize=auto;html=1;fontSize=12;startSize=8;endSize=8;" edge="1" parent="1" source="sEt8218exzhVbjyMgW-c-21">
          <mxGeometry relative="1" as="geometry">
            <mxPoint x="235" y="400" as="targetPoint" />
          </mxGeometry>
        </mxCell>
        <mxCell id="sEt8218exzhVbjyMgW-c-25" value="Output" style="edgeLabel;html=1;align=center;verticalAlign=middle;resizable=0;points=[];fontSize=16;" vertex="1" connectable="0" parent="sEt8218exzhVbjyMgW-c-24">
          <mxGeometry x="0.3362" y="3" relative="1" as="geometry">
            <mxPoint x="-3" y="-9" as="offset" />
          </mxGeometry>
        </mxCell>
        <mxCell id="sEt8218exzhVbjyMgW-c-21" value="" style="rounded=0;whiteSpace=wrap;html=1;fontSize=16;fillColor=#FFFFFF;" vertex="1" parent="1">
          <mxGeometry x="125" y="105" width="220" height="110" as="geometry" />
        </mxCell>
        <mxCell id="sEt8218exzhVbjyMgW-c-5" style="edgeStyle=none;curved=1;rounded=0;orthogonalLoop=1;jettySize=auto;html=1;fontSize=12;startSize=8;endSize=8;exitX=1.002;exitY=0.167;exitDx=0;exitDy=0;exitPerimeter=0;" edge="1" parent="1" source="sEt8218exzhVbjyMgW-c-1">
          <mxGeometry relative="1" as="geometry">
            <mxPoint x="640" y="81" as="targetPoint" />
            <mxPoint x="520" y="140" as="sourcePoint" />
          </mxGeometry>
        </mxCell>
        <mxCell id="sEt8218exzhVbjyMgW-c-6" value="AXIOS&lt;br&gt;req = user-name&lt;br&gt;res = repositories" style="edgeLabel;html=1;align=center;verticalAlign=middle;resizable=0;points=[];fontSize=16;" vertex="1" connectable="0" parent="sEt8218exzhVbjyMgW-c-5">
          <mxGeometry x="-0.0991" y="2" relative="1" as="geometry">
            <mxPoint x="15" y="42" as="offset" />
          </mxGeometry>
        </mxCell>
        <mxCell id="sEt8218exzhVbjyMgW-c-11" style="edgeStyle=none;curved=1;rounded=0;orthogonalLoop=1;jettySize=auto;html=1;fontSize=12;startSize=8;endSize=8;entryX=0;entryY=0.5;entryDx=0;entryDy=0;" edge="1" parent="1" target="sEt8218exzhVbjyMgW-c-10">
          <mxGeometry relative="1" as="geometry">
            <mxPoint x="630" y="240" as="targetPoint" />
            <mxPoint x="430" y="240" as="sourcePoint" />
          </mxGeometry>
        </mxCell>
        <mxCell id="sEt8218exzhVbjyMgW-c-27" value="AXIOS" style="edgeLabel;html=1;align=center;verticalAlign=middle;resizable=0;points=[];fontSize=16;" vertex="1" connectable="0" parent="sEt8218exzhVbjyMgW-c-11">
          <mxGeometry x="0.28" y="1" relative="1" as="geometry">
            <mxPoint x="-24" y="21" as="offset" />
          </mxGeometry>
        </mxCell>
        <mxCell id="sEt8218exzhVbjyMgW-c-3" value="&lt;font color=&quot;#000000&quot;&gt;Front-end Deployment&lt;/font&gt;" style="text;html=1;strokeColor=none;fillColor=#ffffff;align=center;verticalAlign=middle;whiteSpace=wrap;rounded=0;fontSize=16;" vertex="1" parent="1">
          <mxGeometry x="145" y="50" width="180" height="30" as="geometry" />
        </mxCell>
        <mxCell id="sEt8218exzhVbjyMgW-c-4" value="&lt;font style=&quot;font-size: 14px;&quot;&gt;GitHub API&#39;s&lt;/font&gt;" style="dashed=0;outlineConnect=0;html=1;align=center;labelPosition=center;verticalLabelPosition=bottom;verticalAlign=top;shape=mxgraph.weblogos.github;fontSize=16;" vertex="1" parent="1">
          <mxGeometry x="640" y="40" width="80" height="80" as="geometry" />
        </mxCell>
        <mxCell id="sEt8218exzhVbjyMgW-c-10" value="Emailjs API&#39;s" style="shape=image;verticalLabelPosition=bottom;labelBackgroundColor=default;verticalAlign=top;aspect=fixed;imageAspect=0;image=https://www.emailjs.com/logo.png;fontSize=14;" vertex="1" parent="1">
          <mxGeometry x="640" y="200" width="80" height="80" as="geometry" />
        </mxCell>
        <mxCell id="sEt8218exzhVbjyMgW-c-13" value="Request - requeriments" style="swimlane;fontStyle=0;childLayout=stackLayout;horizontal=1;startSize=50;horizontalStack=0;resizeParent=1;resizeParentMax=0;resizeLast=0;collapsible=1;marginBottom=0;whiteSpace=wrap;html=1;fontSize=16;" vertex="1" parent="1">
          <mxGeometry x="470" y="280" width="140" height="140" as="geometry" />
        </mxCell>
        <mxCell id="sEt8218exzhVbjyMgW-c-14" value="public_key" style="text;strokeColor=none;fillColor=none;align=left;verticalAlign=middle;spacingLeft=4;spacingRight=4;overflow=hidden;points=[[0,0.5],[1,0.5]];portConstraint=eastwest;rotatable=0;whiteSpace=wrap;html=1;fontSize=16;" vertex="1" parent="sEt8218exzhVbjyMgW-c-13">
          <mxGeometry y="50" width="140" height="30" as="geometry" />
        </mxCell>
        <mxCell id="sEt8218exzhVbjyMgW-c-15" value="service_key" style="text;strokeColor=none;fillColor=none;align=left;verticalAlign=middle;spacingLeft=4;spacingRight=4;overflow=hidden;points=[[0,0.5],[1,0.5]];portConstraint=eastwest;rotatable=0;whiteSpace=wrap;html=1;fontSize=16;" vertex="1" parent="sEt8218exzhVbjyMgW-c-13">
          <mxGeometry y="80" width="140" height="30" as="geometry" />
        </mxCell>
        <mxCell id="sEt8218exzhVbjyMgW-c-16" value="template_key" style="text;strokeColor=none;fillColor=none;align=left;verticalAlign=middle;spacingLeft=4;spacingRight=4;overflow=hidden;points=[[0,0.5],[1,0.5]];portConstraint=eastwest;rotatable=0;whiteSpace=wrap;html=1;fontSize=16;" vertex="1" parent="sEt8218exzhVbjyMgW-c-13">
          <mxGeometry y="110" width="140" height="30" as="geometry" />
        </mxCell>
        <mxCell id="sEt8218exzhVbjyMgW-c-20" value="" style="shape=image;verticalLabelPosition=bottom;labelBackgroundColor=default;verticalAlign=top;aspect=fixed;imageAspect=0;image=https://upload.wikimedia.org/wikipedia/commons/thumb/8/8e/Nextjs-logo.svg/2560px-Nextjs-logo.svg.png;" vertex="1" parent="1">
          <mxGeometry x="147.9" y="142.29000000000002" width="174.21" height="35.42" as="geometry" />
        </mxCell>
        <mxCell id="sEt8218exzhVbjyMgW-c-26" value="E-mail" style="outlineConnect=0;dashed=0;verticalLabelPosition=bottom;verticalAlign=top;align=center;html=1;shape=mxgraph.aws3.email;fillColor=#D9A741;gradientColor=none;fontSize=16;" vertex="1" parent="1">
          <mxGeometry x="194.51" y="400" width="81" height="61.5" as="geometry" />
        </mxCell>
      </root>
    </mxGraphModel>
  </diagram>
</mxfile>
